<svg width="50" height="49" viewBox="0 0 50 49" fill="none" xmlns="http://www.w3.org/2000/svg">
<path opacity="0.389" d="M24.2187 48.4373C37.5943 48.4373 48.4373 37.5943 48.4373 24.2187C48.4373 10.8431 37.5943 0 24.2187 0C10.8431 0 0 10.8431 0 24.2187C0 37.5943 10.8431 48.4373 24.2187 48.4373Z" fill="url(#paint0_linear_419_56)"/>
<path d="M4.67978 9.90613L34.7408 9.90828C35.3131 9.90828 35.7772 10.3125 35.7772 11.4896L35.7783 45.506C32.2314 47.4358 28.2566 48.444 24.2187 48.4379C10.8439 48.4374 -1.05906e-06 37.5935 -1.05906e-06 24.2182C-0.00804604 19.0702 1.63189 14.0549 4.67978 9.90613Z" fill="#FFF7EE"/>
<path d="M31.3744 29.0347V29.8604C31.3744 30.0884 31.0926 30.2732 30.7455 30.2732H5.58309C5.23492 30.2732 4.95358 30.0884 4.95358 29.8604V29.0347C4.95358 28.8067 5.23492 28.6219 5.58309 28.6219H30.7455C31.0926 28.6219 31.3744 28.8067 31.3744 29.0347ZM20.8405 33.0257H5.57931C5.2333 33.0257 4.95412 33.2106 4.95412 33.438V34.2637C4.95412 34.4917 5.2333 34.6765 5.57931 34.6765H20.8405C21.1865 34.6765 21.4667 34.4917 21.4667 34.2637V33.438C21.4667 33.2106 21.1865 33.0257 20.8405 33.0257ZM5.22899 17.0634H16.2378C16.3898 17.0634 16.5126 16.8785 16.5126 16.6505V15.8248C16.5126 15.5968 16.3898 15.412 16.2378 15.412H5.22899C5.07754 15.412 4.95412 15.5968 4.95412 15.8248V16.6505C4.95412 16.8785 5.077 17.0634 5.22899 17.0634ZM30.7455 21.4667H5.58309C5.23492 21.4667 4.95358 21.6515 4.95358 21.8795V22.7052C4.95358 22.9332 5.23492 23.118 5.58309 23.118H30.7455C31.0926 23.118 31.3744 22.9332 31.3744 22.7052V21.8795C31.3744 21.6515 31.0926 21.4667 30.7455 21.4667ZM30.7455 24.7689H5.58309C5.23492 24.7689 4.95358 24.9543 4.95358 25.1817V26.0074C4.95358 26.2354 5.23492 26.4202 5.58309 26.4202H30.7455C31.0926 26.4202 31.3744 26.2354 31.3744 26.0074V25.1817C31.3744 24.9543 31.0926 24.7689 30.7455 24.7689Z" fill="#B4D2D7"/>
<path d="M30.9373 33.3104L27.5634 38.7107C27.5003 38.8124 27.4177 38.9006 27.3204 38.9703C27.2231 39.04 27.113 39.0898 26.9965 39.1169C26.8799 39.144 26.7591 39.1478 26.6411 39.1281C26.523 39.1085 26.41 39.0657 26.3085 39.0023C26.207 38.9389 26.119 38.856 26.0496 38.7585C25.9801 38.6611 25.9306 38.5508 25.9039 38.4342C25.8771 38.3175 25.8736 38.1967 25.8936 38.0787C25.9136 37.9608 25.9567 37.8479 26.0204 37.7465L29.3943 32.3462C29.4574 32.2445 29.54 32.1563 29.6373 32.0866C29.7346 32.0169 29.8447 31.9671 29.9613 31.94C30.0778 31.9129 30.1986 31.9091 30.3167 31.9288C30.4347 31.9484 30.5477 31.9912 30.6492 32.0546C30.7507 32.118 30.8387 32.2009 30.9081 32.2984C30.9776 32.3958 31.0271 32.5061 31.0538 32.6227C31.0806 32.7394 31.0841 32.8601 31.0641 32.9781C31.0441 33.0961 31.001 33.209 30.9373 33.3104Z" fill="#013963"/>
<path d="M26.5777 32.5623L44.5304 3.83145C44.562 3.7807 44.6034 3.73668 44.652 3.70192C44.7007 3.66716 44.7557 3.64233 44.814 3.62887C44.8723 3.6154 44.9326 3.61356 44.9916 3.62344C45.0506 3.63333 45.1071 3.65475 45.1578 3.68647L49.7863 6.57907C49.8886 6.64304 49.9613 6.74501 49.9883 6.86256C50.0154 6.98011 49.9947 7.1036 49.9308 7.20588L31.978 35.9367C31.9286 36.0159 31.856 36.078 31.77 36.1146L29.0537 37.2679C28.9864 37.2965 28.9131 37.3084 28.8402 37.3027C28.7673 37.297 28.6969 37.2738 28.6349 37.235L26.8763 36.1361C26.8143 36.0973 26.7626 36.0441 26.7255 35.9811C26.6884 35.918 26.6671 35.847 26.6634 35.7739L26.5092 32.8269C26.5043 32.7338 26.5282 32.6414 26.5777 32.5623Z" fill="#FFB23C"/>
<path d="M47.395 5.08447L49.7863 6.57901C49.8886 6.64298 49.9612 6.74495 49.9883 6.8625C50.0154 6.98005 49.9947 7.10354 49.9308 7.20581L31.978 35.9366C31.9286 36.0159 31.856 36.078 31.77 36.1145L29.0536 37.2679C28.9863 37.2965 28.9131 37.3084 28.8402 37.3027C28.7673 37.2969 28.6969 37.2737 28.6349 37.235L26.8762 36.1355C26.8144 36.0968 26.7628 36.0438 26.7257 35.9809C26.6887 35.9181 26.6673 35.8473 26.6634 35.7744V35.7728L29.3781 34.6194C29.464 34.583 29.5366 34.5211 29.5861 34.4421L47.5389 5.71128C47.6029 5.60907 47.6237 5.48563 47.5967 5.36809C47.5697 5.25055 47.4971 5.14853 47.395 5.08447Z" fill="#EE9500"/>
<path d="M39.3548 26.0198L33.7146 35.0457C33.5867 35.2504 33.3828 35.3958 33.1477 35.4501C32.9126 35.5044 32.6656 35.463 32.461 35.3352L26.9065 31.8643C26.7018 31.7364 26.5564 31.5325 26.5021 31.2974C26.4478 31.0623 26.4892 30.8153 26.617 30.6106L32.2572 21.5847C32.3851 21.3801 32.589 21.2346 32.8241 21.1804C33.0592 21.1261 33.3062 21.1674 33.5109 21.2953L39.0654 24.7662C39.4911 25.0324 39.6205 25.5935 39.3548 26.0198ZM49.526 8.02503L43.9715 4.55413C43.7669 4.42628 43.5199 4.38494 43.2848 4.43921C43.0497 4.49349 42.8458 4.63894 42.7179 4.84356L38.0419 12.3265C37.914 12.5311 37.8727 12.7781 37.927 13.0132C37.9812 13.2483 38.1267 13.4522 38.3313 13.5801L43.8858 17.051C44.3116 17.3172 44.8732 17.1873 45.1394 16.7616L49.8154 9.27811C49.9431 9.07353 49.9844 8.82663 49.9301 8.59166C49.8758 8.3567 49.7305 8.15289 49.526 8.02503Z" fill="#004C9D"/>
<path d="M36.8863 24.4768L31.2456 33.5033C31.1177 33.7078 30.9137 33.8532 30.6786 33.9073C30.4435 33.9615 30.1965 33.9201 29.992 33.7922L26.9059 31.8643C26.7013 31.7365 26.5558 31.5326 26.5016 31.2975C26.4473 31.0624 26.4886 30.8153 26.6165 30.6107L32.2567 21.5848C32.3845 21.3802 32.5885 21.2347 32.8236 21.1804C33.0587 21.1262 33.3057 21.1675 33.5103 21.2954L36.5964 23.2237C37.0222 23.49 37.1515 24.051 36.8853 24.4768H36.8863ZM47.0576 6.4826L43.9715 4.55475C43.7669 4.42689 43.5198 4.38555 43.2847 4.43982C43.0496 4.4941 42.8457 4.63955 42.7179 4.84417L38.0419 12.3271C37.914 12.5317 37.8727 12.7787 37.927 13.0138C37.9812 13.2489 38.1267 13.4528 38.3313 13.5807L41.4174 15.5091C41.8432 15.7753 42.4047 15.6454 42.671 15.2197L47.347 7.73622C47.4749 7.5316 47.5162 7.28457 47.4619 7.04947C47.4076 6.81437 47.2622 6.61046 47.0576 6.4826Z" fill="#0065D1"/>
<path d="M42.2361 5.61595L43.7791 6.57961C44.2049 6.84586 44.3342 7.40691 44.0685 7.83323L37.946 17.6304C37.8197 17.8338 37.6545 18.0102 37.4599 18.1496C37.2653 18.289 37.0452 18.3886 36.812 18.4428C36.5789 18.497 36.3373 18.5046 36.1012 18.4652C35.8651 18.4259 35.6391 18.3404 35.4361 18.2135C35.2331 18.0867 35.0571 17.921 34.9182 17.7261C34.7794 17.5311 34.6803 17.3106 34.6268 17.0773C34.5733 16.844 34.5663 16.6025 34.6063 16.3665C34.6463 16.1305 34.7325 15.9047 34.8599 15.702L40.9825 5.90484C41.1103 5.70022 41.3142 5.55477 41.5493 5.50049C41.7844 5.44622 42.0315 5.48755 42.2361 5.61541V5.61595Z" fill="#004C9D"/>
<path d="M31.3744 43.5587C31.3744 43.9408 31.065 44.2502 30.684 44.2502H26.5087C25.808 44.2502 25.1785 43.8061 24.943 43.1453C24.927 43.0977 24.8983 43.0554 24.8599 43.0231C24.8215 42.9908 24.7749 42.9696 24.7253 42.962C24.676 42.9524 24.625 42.9566 24.5779 42.9741C24.5308 42.9916 24.4895 43.0217 24.4585 43.0612L23.1456 44.6716C22.9901 44.8627 22.7819 45.0039 22.5468 45.0775C22.3117 45.1511 22.0602 45.1539 21.8235 45.0855C21.5868 45.0174 21.3752 44.8812 21.2152 44.6939C21.0552 44.5066 20.9537 44.2764 20.9234 44.0319L20.5052 40.6806L18.7525 43.2692C18.5336 43.5941 18.2068 43.831 17.83 43.9379C17.4531 44.0448 17.0506 44.0149 16.6937 43.8535L15.819 43.459C15.6601 43.3787 15.5383 43.2403 15.4789 43.0725C15.4195 42.9048 15.4271 42.7206 15.5001 42.5582C15.573 42.3959 15.7058 42.268 15.8707 42.2011C16.0356 42.1341 16.2199 42.1333 16.3854 42.1989L17.2601 42.5923C17.3207 42.6199 17.3891 42.6251 17.4531 42.6071C17.5171 42.589 17.5727 42.5488 17.6099 42.4937L19.5464 39.6334C19.6888 39.4206 19.8932 39.2567 20.132 39.1641C20.3707 39.0716 20.6322 39.0548 20.8809 39.116C21.1303 39.1747 21.3556 39.3086 21.5263 39.4997C21.6969 39.6908 21.8047 39.9298 21.8348 40.1842L22.2579 43.5743L23.3892 42.187C23.5741 41.9571 23.8175 41.7812 24.0938 41.6778C24.3702 41.5744 24.6693 41.5474 24.9597 41.5996C25.2509 41.6479 25.5238 41.7737 25.7496 41.9638C25.9754 42.154 26.1458 42.4014 26.243 42.6802C26.2626 42.735 26.2986 42.7824 26.3462 42.8159C26.3937 42.8495 26.4505 42.8676 26.5087 42.8677H30.684C31.065 42.8677 31.3744 43.1771 31.3744 43.5587Z" fill="#013963"/>
<defs>
<linearGradient id="paint0_linear_419_56" x1="18.9424" y1="13.9935" x2="14.2566" y2="54.1398" gradientUnits="userSpaceOnUse">
<stop stop-color="#BFD9F3"/>
<stop offset="1" stop-color="#F2F2FD"/>
</linearGradient>
</defs>
</svg>
